<svg width="88" height="88" viewBox="0 0 88 88" fill="none" xmlns="http://www.w3.org/2000/svg">
<g filter="url(#filter0_ii_618_8350)">
<rect x="0.923828" y="0.0488281" width="86.966" height="86.966" rx="43.483" fill="#F0F0F3"/>
<rect x="0.923828" y="0.0488281" width="86.966" height="86.966" rx="43.483" fill="url(#paint0_linear_618_8350)" fill-opacity="0.4" style="mix-blend-mode:soft-light"/>
</g>
<rect x="1.8494" y="0.974396" width="85.1148" height="85.1148" rx="42.5574" stroke="#F0F0F3" stroke-opacity="0.4" stroke-width="1.85114"/>
<mask id="path-3-outside-1_618_8350" maskUnits="userSpaceOnUse" x="9.16992" y="8.17188" width="71" height="71" fill="black">
<rect fill="white" x="9.16992" y="8.17188" width="71" height="71"/>
<path d="M44.4902 10.1719C53.3241 10.182 61.7935 13.696 68.04 19.9424C74.2865 26.1889 77.8003 34.6583 77.8105 43.4922C77.8105 50.0823 75.8566 56.5254 72.1953 62.0049C68.5341 67.4841 63.3303 71.7544 57.2422 74.2764C51.1537 76.7983 44.4537 77.4585 37.9902 76.1729C31.5268 74.8872 25.5896 71.7136 20.9297 67.0537C16.2698 62.3938 13.0962 56.4567 11.8105 49.9932C10.5249 43.5296 11.1841 36.8297 13.7061 30.7412C16.228 24.6528 20.4992 19.4494 25.9785 15.7881C31.458 12.1268 37.9002 10.1719 44.4902 10.1719ZM44.4922 14.873C38.706 14.873 33.0562 16.6308 28.291 19.9131C23.526 23.1953 19.87 27.847 17.8076 33.2529C15.7453 38.659 15.373 44.5645 16.7412 50.1865C18.1095 55.8086 21.1537 60.8825 25.4697 64.7363C25.5173 61.6147 26.7885 58.6362 29.0107 56.4434C31.2331 54.2504 34.2285 53.0186 37.3506 53.0127H51.6309C54.7528 53.0186 57.7475 54.2507 59.9697 56.4434C62.192 58.6362 63.4642 61.6147 63.5117 64.7363H63.5137C67.8297 60.8825 70.8739 55.8087 72.2422 50.1865C73.6104 44.5645 73.2391 38.659 71.1768 33.2529C69.1144 27.847 65.4582 23.1953 60.6934 19.9131C55.9283 16.6309 50.2783 14.8731 44.4922 14.873ZM44.4902 26.832C47.2518 26.832 49.9008 27.9292 51.8535 29.8818C53.8063 31.8346 54.9033 34.4835 54.9033 37.2451C54.9033 39.3045 54.2926 41.3179 53.1484 43.0303C52.0043 44.7425 50.3781 46.0771 48.4756 46.8652C46.5729 47.6533 44.4788 47.8598 42.459 47.458C40.4393 47.0563 38.5841 46.0644 37.1279 44.6084C35.6717 43.1522 34.6801 41.2962 34.2783 39.2764C33.8766 37.2567 34.0822 35.1633 34.8701 33.2607C35.6582 31.3581 36.9937 29.7311 38.7061 28.5869C40.4182 27.443 42.4311 26.8321 44.4902 26.832Z"/>
</mask>
<g filter="url(#filter1_ii_618_8350)">
<path d="M44.4902 10.1719C53.3241 10.182 61.7935 13.696 68.04 19.9424C74.2865 26.1889 77.8003 34.6583 77.8105 43.4922C77.8105 50.0823 75.8566 56.5254 72.1953 62.0049C68.5341 67.4841 63.3303 71.7544 57.2422 74.2764C51.1537 76.7983 44.4537 77.4585 37.9902 76.1729C31.5268 74.8872 25.5896 71.7136 20.9297 67.0537C16.2698 62.3938 13.0962 56.4567 11.8105 49.9932C10.5249 43.5296 11.1841 36.8297 13.7061 30.7412C16.228 24.6528 20.4992 19.4494 25.9785 15.7881C31.458 12.1268 37.9002 10.1719 44.4902 10.1719ZM44.4922 14.873C38.706 14.873 33.0562 16.6308 28.291 19.9131C23.526 23.1953 19.87 27.847 17.8076 33.2529C15.7453 38.659 15.373 44.5645 16.7412 50.1865C18.1095 55.8086 21.1537 60.8825 25.4697 64.7363C25.5173 61.6147 26.7885 58.6362 29.0107 56.4434C31.2331 54.2504 34.2285 53.0186 37.3506 53.0127H51.6309C54.7528 53.0186 57.7475 54.2507 59.9697 56.4434C62.192 58.6362 63.4642 61.6147 63.5117 64.7363H63.5137C67.8297 60.8825 70.8739 55.8087 72.2422 50.1865C73.6104 44.5645 73.2391 38.659 71.1768 33.2529C69.1144 27.847 65.4582 23.1953 60.6934 19.9131C55.9283 16.6309 50.2783 14.8731 44.4922 14.873ZM44.4902 26.832C47.2518 26.832 49.9008 27.9292 51.8535 29.8818C53.8063 31.8346 54.9033 34.4835 54.9033 37.2451C54.9033 39.3045 54.2926 41.3179 53.1484 43.0303C52.0043 44.7425 50.3781 46.0771 48.4756 46.8652C46.5729 47.6533 44.4788 47.8598 42.459 47.458C40.4393 47.0563 38.5841 46.0644 37.1279 44.6084C35.6717 43.1522 34.6801 41.2962 34.2783 39.2764C33.8766 37.2567 34.0822 35.1633 34.8701 33.2607C35.6582 31.3581 36.9937 29.7311 38.7061 28.5869C40.4182 27.443 42.4311 26.8321 44.4902 26.832Z" fill="#FF9447"/>
<path d="M44.4902 10.1719C53.3241 10.182 61.7935 13.696 68.04 19.9424C74.2865 26.1889 77.8003 34.6583 77.8105 43.4922C77.8105 50.0823 75.8566 56.5254 72.1953 62.0049C68.5341 67.4841 63.3303 71.7544 57.2422 74.2764C51.1537 76.7983 44.4537 77.4585 37.9902 76.1729C31.5268 74.8872 25.5896 71.7136 20.9297 67.0537C16.2698 62.3938 13.0962 56.4567 11.8105 49.9932C10.5249 43.5296 11.1841 36.8297 13.7061 30.7412C16.228 24.6528 20.4992 19.4494 25.9785 15.7881C31.458 12.1268 37.9002 10.1719 44.4902 10.1719ZM44.4922 14.873C38.706 14.873 33.0562 16.6308 28.291 19.9131C23.526 23.1953 19.87 27.847 17.8076 33.2529C15.7453 38.659 15.373 44.5645 16.7412 50.1865C18.1095 55.8086 21.1537 60.8825 25.4697 64.7363C25.5173 61.6147 26.7885 58.6362 29.0107 56.4434C31.2331 54.2504 34.2285 53.0186 37.3506 53.0127H51.6309C54.7528 53.0186 57.7475 54.2507 59.9697 56.4434C62.192 58.6362 63.4642 61.6147 63.5117 64.7363H63.5137C67.8297 60.8825 70.8739 55.8087 72.2422 50.1865C73.6104 44.5645 73.2391 38.659 71.1768 33.2529C69.1144 27.847 65.4582 23.1953 60.6934 19.9131C55.9283 16.6309 50.2783 14.8731 44.4922 14.873ZM44.4902 26.832C47.2518 26.832 49.9008 27.9292 51.8535 29.8818C53.8063 31.8346 54.9033 34.4835 54.9033 37.2451C54.9033 39.3045 54.2926 41.3179 53.1484 43.0303C52.0043 44.7425 50.3781 46.0771 48.4756 46.8652C46.5729 47.6533 44.4788 47.8598 42.459 47.458C40.4393 47.0563 38.5841 46.0644 37.1279 44.6084C35.6717 43.1522 34.6801 41.2962 34.2783 39.2764C33.8766 37.2567 34.0822 35.1633 34.8701 33.2607C35.6582 31.3581 36.9937 29.7311 38.7061 28.5869C40.4182 27.443 42.4311 26.8321 44.4902 26.832Z" fill="url(#paint1_linear_618_8350)" fill-opacity="0.4" style="mix-blend-mode:soft-light"/>
</g>
<path d="M44.4902 10.1719L44.4923 8.32074L44.4902 8.32074L44.4902 10.1719ZM68.04 19.9424L69.349 18.6334L69.349 18.6334L68.04 19.9424ZM77.8105 43.4922L79.6617 43.4922L79.6617 43.4901L77.8105 43.4922ZM72.1953 62.0049L73.7345 63.0333L73.7345 63.0333L72.1953 62.0049ZM57.2422 74.2764L57.9506 75.9866L57.9506 75.9866L57.2422 74.2764ZM37.9902 76.1729L37.6291 77.9884L37.6291 77.9884L37.9902 76.1729ZM20.9297 67.0537L19.6207 68.3627L19.6207 68.3627L20.9297 67.0537ZM11.8105 49.9932L9.99498 50.3543L9.99498 50.3543L11.8105 49.9932ZM13.7061 30.7412L11.9958 30.0328L11.9958 30.0328L13.7061 30.7412ZM25.9785 15.7881L24.9501 14.2489L24.9501 14.2489L25.9785 15.7881ZM44.4922 14.873L44.4922 13.0219H44.4922V14.873ZM28.291 19.9131L27.2409 18.3886L27.2409 18.3886L28.291 19.9131ZM17.8076 33.2529L16.0781 32.5931L16.0781 32.5931L17.8076 33.2529ZM16.7412 50.1865L14.9426 50.6242L14.9426 50.6243L16.7412 50.1865ZM25.4697 64.7363L24.2368 66.1171L27.2589 68.8156L27.3206 64.7645L25.4697 64.7363ZM29.0107 56.4434L27.7105 55.1257L27.7105 55.1257L29.0107 56.4434ZM37.3506 53.0127L37.3506 51.1616L37.3471 51.1616L37.3506 53.0127ZM51.6309 53.0127L51.6344 51.1616H51.6309V53.0127ZM59.9697 56.4434L61.2699 55.1257L61.2699 55.1257L59.9697 56.4434ZM63.5117 64.7363L61.6608 64.7645L61.6886 66.5875H63.5117V64.7363ZM63.5137 64.7363V66.5875H64.2199L64.7466 66.1171L63.5137 64.7363ZM72.2422 50.1865L74.0408 50.6243L74.0408 50.6242L72.2422 50.1865ZM71.1768 33.2529L72.9063 32.5931L72.9063 32.5931L71.1768 33.2529ZM60.6934 19.9131L61.7435 18.3886L61.7434 18.3886L60.6934 19.9131ZM44.4902 26.832L44.4902 24.9809L44.4902 24.9809L44.4902 26.832ZM51.8535 29.8818L53.1625 28.5729L53.1624 28.5729L51.8535 29.8818ZM54.9033 37.2451L56.7545 37.2451V37.2451H54.9033ZM53.1484 43.0303L54.6876 44.0587L54.6876 44.0587L53.1484 43.0303ZM48.4756 46.8652L49.184 48.5755L49.184 48.5754L48.4756 46.8652ZM42.459 47.458L42.0978 49.2736L42.0978 49.2736L42.459 47.458ZM37.1279 44.6084L35.819 45.9173L35.819 45.9174L37.1279 44.6084ZM34.2783 39.2764L32.4628 39.6375L32.4628 39.6375L34.2783 39.2764ZM34.8701 33.2607L33.1599 32.5523L33.1599 32.5524L34.8701 33.2607ZM38.7061 28.5869L37.6777 27.0477L37.6776 27.0478L38.7061 28.5869ZM44.4902 10.1719L44.4881 12.023C52.8317 12.0325 60.8311 15.3516 66.7311 21.2514L68.04 19.9424L69.349 18.6334C62.7558 12.0404 53.8165 8.33138 44.4923 8.32074L44.4902 10.1719ZM68.04 19.9424L66.7311 21.2513C72.631 27.1512 75.9498 35.1507 75.9594 43.4943L77.8105 43.4922L79.6617 43.4901C79.6509 34.166 75.9421 25.2266 69.349 18.6334L68.04 19.9424ZM77.8105 43.4922H75.9594C75.9594 49.7163 74.114 55.8014 70.6561 60.9764L72.1953 62.0049L73.7345 63.0333C77.5992 57.2493 79.6617 50.4484 79.6617 43.4922H77.8105ZM72.1953 62.0049L70.6562 60.9764C67.1984 66.1512 62.2837 70.1843 56.5338 72.5662L57.2422 74.2764L57.9506 75.9866C64.377 73.3246 69.8699 68.817 73.7345 63.0333L72.1953 62.0049ZM57.2422 74.2764L56.5338 72.5661C50.7835 74.948 44.4557 75.5715 38.3514 74.3573L37.9902 76.1729L37.6291 77.9884C44.4517 79.3455 51.5239 78.6486 57.9506 75.9866L57.2422 74.2764ZM37.9902 76.1729L38.3514 74.3573C32.247 73.143 26.6397 70.1458 22.2386 65.7448L20.9297 67.0537L19.6207 68.3627C24.5395 73.2814 30.8065 76.6313 37.6291 77.9884L37.9902 76.1729ZM20.9297 67.0537L22.2386 65.7448C17.8376 61.3437 14.8404 55.7364 13.6261 49.632L11.8105 49.9932L9.99498 50.3543C11.3521 57.1769 14.7019 63.4439 19.6207 68.3627L20.9297 67.0537ZM11.8105 49.9932L13.6261 49.632C12.4118 43.5275 13.0345 37.1998 15.4163 31.4496L13.7061 30.7412L11.9958 30.0328C9.33373 36.4597 8.6379 43.5318 9.99498 50.3543L11.8105 49.9932ZM13.7061 30.7412L15.4163 31.4496C17.798 25.6996 21.8319 20.7852 27.007 17.3272L25.9785 15.7881L24.9501 14.2489C19.1664 18.1135 14.6579 23.6061 11.9958 30.0328L13.7061 30.7412ZM25.9785 15.7881L27.007 17.3272C32.1821 13.8693 38.2664 12.0231 44.4903 12.023L44.4902 10.1719L44.4902 8.32074C37.5339 8.3208 30.7338 10.3843 24.9501 14.2489L25.9785 15.7881ZM44.4922 14.873V13.0219C38.3309 13.0219 32.3149 14.8936 27.2409 18.3886L28.291 19.9131L29.3411 21.4376C33.7974 18.368 39.0811 16.7242 44.4922 16.7242V14.873ZM28.291 19.9131L27.2409 18.3886C22.1672 21.8835 18.2742 26.8367 16.0781 32.5931L17.8076 33.2529L19.5372 33.9128C21.4659 28.8573 24.8849 24.5071 29.3411 21.4376L28.291 19.9131ZM17.8076 33.2529L16.0781 32.5931C13.8821 38.3495 13.4857 44.6377 14.9426 50.6242L16.7412 50.1865L18.5399 49.7488C17.2604 44.4913 17.6085 38.9685 19.5372 33.9127L17.8076 33.2529ZM16.7412 50.1865L14.9426 50.6243C16.3996 56.6109 19.6411 62.0135 24.2368 66.1171L25.4697 64.7363L26.7027 63.3555C22.6663 59.7514 19.8194 55.0064 18.5398 49.7488L16.7412 50.1865ZM25.4697 64.7363L27.3206 64.7645C27.3608 62.1279 28.4345 59.6126 30.311 57.761L29.0107 56.4434L27.7105 55.1257C25.1425 57.6598 23.6738 61.1014 23.6188 64.7081L25.4697 64.7363ZM29.0107 56.4434L30.3109 57.761C32.1876 55.9092 34.7172 54.8688 37.3541 54.8638L37.3506 53.0127L37.3471 51.1616C33.7397 51.1684 30.2786 52.5917 27.7105 55.1257L29.0107 56.4434ZM37.3506 53.0127V54.8638H51.6309V53.0127V51.1616H37.3506V53.0127ZM51.6309 53.0127L51.6273 54.8638C54.2638 54.8688 56.7929 55.9093 58.6696 57.761L59.9697 56.4434L61.2699 55.1257C58.7021 52.592 55.2417 51.1684 51.6344 51.1616L51.6309 53.0127ZM59.9697 56.4434L58.6695 57.761C60.5462 59.6129 61.6206 62.1283 61.6608 64.7645L63.5117 64.7363L65.3626 64.7081C65.3077 61.1011 63.8377 57.6595 61.2699 55.1257L59.9697 56.4434ZM63.5117 64.7363V66.5875H63.5137V64.7363V62.8852H63.5117V64.7363ZM63.5137 64.7363L64.7466 66.1171C69.3423 62.0135 72.5838 56.6109 74.0408 50.6243L72.2422 50.1865L70.4436 49.7488C69.164 55.0064 66.3171 59.7514 62.2807 63.3555L63.5137 64.7363ZM72.2422 50.1865L74.0408 50.6242C75.4976 44.6379 75.1024 38.3497 72.9063 32.5931L71.1768 33.2529L69.4472 33.9127C71.3758 38.9683 71.7231 44.4911 70.4435 49.7488L72.2422 50.1865ZM71.1768 33.2529L72.9063 32.5931C70.7103 26.8367 66.817 21.8835 61.7435 18.3886L60.6934 19.9131L59.6432 21.4375C64.0994 24.5071 67.5186 28.8574 69.4472 33.9127L71.1768 33.2529ZM60.6934 19.9131L61.7434 18.3886C56.6695 14.8937 50.6533 13.022 44.4922 13.0219L44.4922 14.873L44.4922 16.7242C49.9032 16.7243 55.1871 18.3681 59.6433 21.4376L60.6934 19.9131ZM44.4902 26.832V28.6832C46.7609 28.6832 48.939 29.5853 50.5446 31.1908L51.8535 29.8818L53.1624 28.5729C50.8625 26.273 47.7427 24.9809 44.4902 24.9809V26.832ZM51.8535 29.8818L50.5446 31.1908C52.1501 32.7963 53.0522 34.9744 53.0522 37.2451H54.9033H56.7545C56.7545 33.9926 55.4624 30.8728 53.1625 28.5729L51.8535 29.8818ZM54.9033 37.2451L53.0522 37.2451C53.0522 38.9384 52.55 40.5939 51.6093 42.0018L53.1484 43.0303L54.6876 44.0587C56.0352 42.0419 56.7544 39.6706 56.7545 37.2451L54.9033 37.2451ZM53.1484 43.0303L51.6093 42.0018C50.6686 43.4097 49.3314 44.507 47.7671 45.155L48.4756 46.8652L49.184 48.5754C51.4248 47.6472 53.3401 46.0753 54.6876 44.0587L53.1484 43.0303ZM48.4756 46.8652L47.7672 45.155C46.2027 45.8031 44.4808 45.9728 42.8201 45.6424L42.459 47.458L42.0978 49.2736C44.4769 49.7468 46.9432 49.5036 49.184 48.5755L48.4756 46.8652ZM42.459 47.458L42.8201 45.6424C41.1597 45.3121 39.6342 44.4967 38.4368 43.2994L37.1279 44.6084L35.819 45.9174C37.534 47.6322 39.719 48.8004 42.0978 49.2736L42.459 47.458ZM37.1279 44.6084L38.4369 43.2994C37.2397 42.1023 36.4243 40.5762 36.0939 38.9152L34.2783 39.2764L32.4628 39.6375C32.9359 42.0162 34.1037 44.2021 35.819 45.9173L37.1279 44.6084ZM34.2783 39.2764L36.0939 38.9152C35.7635 37.2543 35.9327 35.533 36.5804 33.9691L34.8701 33.2607L33.1599 32.5524C32.2317 34.7935 31.9897 37.2591 32.4628 39.6375L34.2783 39.2764ZM34.8701 33.2607L36.5803 33.9691C37.2283 32.4048 38.3265 31.0669 39.7345 30.1261L38.7061 28.5869L37.6776 27.0478C35.6609 28.3953 34.0881 30.3113 33.1599 32.5523L34.8701 33.2607ZM38.7061 28.5869L39.7344 30.1261C41.1424 29.1855 42.7975 28.6832 44.4903 28.6832L44.4902 26.832L44.4902 24.9809C42.0648 24.981 39.6941 25.7006 37.6777 27.0477L38.7061 28.5869Z" fill="#F0F0F3" fill-opacity="0.4" mask="url(#path-3-outside-1_618_8350)"/>
<defs>
<filter id="filter0_ii_618_8350" x="-8.33185" y="-9.20685" width="105.477" height="105.478" filterUnits="userSpaceOnUse" color-interpolation-filters="sRGB">
<feFlood flood-opacity="0" result="BackgroundImageFix"/>
<feBlend mode="normal" in="SourceGraphic" in2="BackgroundImageFix" result="shape"/>
<feColorMatrix in="SourceAlpha" type="matrix" values="0 0 0 0 0 0 0 0 0 0 0 0 0 0 0 0 0 0 127 0" result="hardAlpha"/>
<feOffset dx="9.25568" dy="9.25568"/>
<feGaussianBlur stdDeviation="6.47898"/>
<feComposite in2="hardAlpha" operator="arithmetic" k2="-1" k3="1"/>
<feColorMatrix type="matrix" values="0 0 0 0 0.682353 0 0 0 0 0.682353 0 0 0 0 0.752941 0 0 0 0.75 0"/>
<feBlend mode="normal" in2="shape" result="effect1_innerShadow_618_8350"/>
<feColorMatrix in="SourceAlpha" type="matrix" values="0 0 0 0 0 0 0 0 0 0 0 0 0 0 0 0 0 0 127 0" result="hardAlpha"/>
<feOffset dx="-9.25568" dy="-9.25568"/>
<feGaussianBlur stdDeviation="7.40454"/>
<feComposite in2="hardAlpha" operator="arithmetic" k2="-1" k3="1"/>
<feColorMatrix type="matrix" values="0 0 0 0 0.976471 0 0 0 0 0.988235 0 0 0 0 1 0 0 0 1 0"/>
<feBlend mode="normal" in2="effect1_innerShadow_618_8350" result="effect2_innerShadow_618_8350"/>
</filter>
<filter id="filter1_ii_618_8350" x="7.4682" y="6.46918" width="74.045" height="74.046" filterUnits="userSpaceOnUse" color-interpolation-filters="sRGB">
<feFlood flood-opacity="0" result="BackgroundImageFix"/>
<feBlend mode="normal" in="SourceGraphic" in2="BackgroundImageFix" result="shape"/>
<feColorMatrix in="SourceAlpha" type="matrix" values="0 0 0 0 0 0 0 0 0 0 0 0 0 0 0 0 0 0 127 0" result="hardAlpha"/>
<feOffset dx="1.85114" dy="1.85114"/>
<feGaussianBlur stdDeviation="1.85114"/>
<feComposite in2="hardAlpha" operator="arithmetic" k2="-1" k3="1"/>
<feColorMatrix type="matrix" values="0 0 0 0 0.65098 0 0 0 0 0.670588 0 0 0 0 0.741176 0 0 0 1 0"/>
<feBlend mode="normal" in2="shape" result="effect1_innerShadow_618_8350"/>
<feColorMatrix in="SourceAlpha" type="matrix" values="0 0 0 0 0 0 0 0 0 0 0 0 0 0 0 0 0 0 127 0" result="hardAlpha"/>
<feOffset dx="-1.85114" dy="-1.85114"/>
<feGaussianBlur stdDeviation="1.85114"/>
<feComposite in2="hardAlpha" operator="arithmetic" k2="-1" k3="1"/>
<feColorMatrix type="matrix" values="0 0 0 0 0.980392 0 0 0 0 0.984314 0 0 0 0 1 0 0 0 1 0"/>
<feBlend mode="normal" in2="effect1_innerShadow_618_8350" result="effect2_innerShadow_618_8350"/>
</filter>
<linearGradient id="paint0_linear_618_8350" x1="135.678" y1="43.5318" x2="48.7121" y2="-52.0447" gradientUnits="userSpaceOnUse">
<stop stop-color="#FF9447"/>
<stop offset="1" stop-color="white"/>
</linearGradient>
<linearGradient id="paint1_linear_618_8350" x1="114.43" y1="43.4924" x2="47.7884" y2="-29.7461" gradientUnits="userSpaceOnUse">
<stop stop-color="#FF9447"/>
<stop offset="1" stop-color="white"/>
</linearGradient>
</defs>
</svg>
