<svg width="71" height="71" viewBox="0 0 71 71" fill="none" xmlns="http://www.w3.org/2000/svg">
<mask id="path-1-outside-1_670_3580" maskUnits="userSpaceOnUse" x="0" y="0" width="71" height="71" fill="black">
<rect fill="white" width="71" height="71"/>
<path d="M35.3201 2C44.154 2.01008 52.6233 5.52413 58.8699 11.7705C65.1164 18.017 68.6302 26.4864 68.6404 35.3203C68.6404 41.9105 66.6865 48.3535 63.0252 53.833C59.364 59.3122 54.1602 63.5826 48.0721 66.1045C41.9836 68.6264 35.2836 69.2866 28.8201 68.001C22.3566 66.7153 16.4195 63.5417 11.7596 58.8818C7.09963 54.2219 3.9261 48.2848 2.64042 41.8213C1.35474 35.3578 2.01398 28.6578 4.53593 22.5693C7.05783 16.481 11.329 11.2775 16.8084 7.61621C22.2878 3.95497 28.73 2.00006 35.3201 2ZM35.3221 6.70117C29.5359 6.70117 23.886 8.45896 19.1209 11.7412C14.3557 15.0235 10.6999 19.6758 8.63749 25.082C6.57523 30.488 6.20294 36.3927 7.57108 42.0146C8.93935 47.6368 11.9836 52.7106 16.2996 56.5645C16.3472 53.4428 17.6184 50.4643 19.8406 48.2715C22.063 46.0786 25.0583 44.8467 28.1805 44.8408H42.4607C45.5826 44.8468 48.5773 46.0788 50.7996 48.2715C53.0218 50.4643 54.294 53.4428 54.3416 56.5645H54.3435C58.6596 52.7106 61.7038 47.6368 63.0721 42.0146C64.4402 36.3928 64.0688 30.488 62.0066 25.082C59.9443 19.676 56.2882 15.0235 51.5232 11.7412C46.7582 8.459 41.1081 6.70127 35.3221 6.70117ZM35.3201 18.6602C38.0816 18.6602 40.7306 19.7573 42.6834 21.71C44.6361 23.6627 45.7332 26.3116 45.7332 29.0732C45.7332 31.1327 45.1225 33.1461 43.9783 34.8584C42.8342 36.5706 41.208 37.9053 39.3055 38.6934C37.4028 39.4815 35.3087 39.6879 33.2889 39.2861C31.2692 38.8844 29.414 37.8925 27.9578 36.4365C26.5016 34.9803 25.51 33.1243 25.1082 31.1045C24.7065 29.0848 24.9121 26.9914 25.7 25.0889C26.4881 23.1862 27.8236 21.5592 29.5359 20.415C31.2481 19.2712 33.261 18.6602 35.3201 18.6602Z"/>
</mask>
<g filter="url(#filter0_i_670_3580)">
<path d="M35.3201 2C44.154 2.01008 52.6233 5.52413 58.8699 11.7705C65.1164 18.017 68.6302 26.4864 68.6404 35.3203C68.6404 41.9105 66.6865 48.3535 63.0252 53.833C59.364 59.3122 54.1602 63.5826 48.0721 66.1045C41.9836 68.6264 35.2836 69.2866 28.8201 68.001C22.3566 66.7153 16.4195 63.5417 11.7596 58.8818C7.09963 54.2219 3.9261 48.2848 2.64042 41.8213C1.35474 35.3578 2.01398 28.6578 4.53593 22.5693C7.05783 16.481 11.329 11.2775 16.8084 7.61621C22.2878 3.95497 28.73 2.00006 35.3201 2ZM35.3221 6.70117C29.5359 6.70117 23.886 8.45896 19.1209 11.7412C14.3557 15.0235 10.6999 19.6758 8.63749 25.082C6.57523 30.488 6.20294 36.3927 7.57108 42.0146C8.93935 47.6368 11.9836 52.7106 16.2996 56.5645C16.3472 53.4428 17.6184 50.4643 19.8406 48.2715C22.063 46.0786 25.0583 44.8467 28.1805 44.8408H42.4607C45.5826 44.8468 48.5773 46.0788 50.7996 48.2715C53.0218 50.4643 54.294 53.4428 54.3416 56.5645H54.3435C58.6596 52.7106 61.7038 47.6368 63.0721 42.0146C64.4402 36.3928 64.0688 30.488 62.0066 25.082C59.9443 19.676 56.2882 15.0235 51.5232 11.7412C46.7582 8.459 41.1081 6.70127 35.3221 6.70117ZM35.3201 18.6602C38.0816 18.6602 40.7306 19.7573 42.6834 21.71C44.6361 23.6627 45.7332 26.3116 45.7332 29.0732C45.7332 31.1327 45.1225 33.1461 43.9783 34.8584C42.8342 36.5706 41.208 37.9053 39.3055 38.6934C37.4028 39.4815 35.3087 39.6879 33.2889 39.2861C31.2692 38.8844 29.414 37.8925 27.9578 36.4365C26.5016 34.9803 25.51 33.1243 25.1082 31.1045C24.7065 29.0848 24.9121 26.9914 25.7 25.0889C26.4881 23.1862 27.8236 21.5592 29.5359 20.415C31.2481 19.2712 33.261 18.6602 35.3201 18.6602Z" fill="#FF9447"/>
<path d="M35.3201 2C44.154 2.01008 52.6233 5.52413 58.8699 11.7705C65.1164 18.017 68.6302 26.4864 68.6404 35.3203C68.6404 41.9105 66.6865 48.3535 63.0252 53.833C59.364 59.3122 54.1602 63.5826 48.0721 66.1045C41.9836 68.6264 35.2836 69.2866 28.8201 68.001C22.3566 66.7153 16.4195 63.5417 11.7596 58.8818C7.09963 54.2219 3.9261 48.2848 2.64042 41.8213C1.35474 35.3578 2.01398 28.6578 4.53593 22.5693C7.05783 16.481 11.329 11.2775 16.8084 7.61621C22.2878 3.95497 28.73 2.00006 35.3201 2ZM35.3221 6.70117C29.5359 6.70117 23.886 8.45896 19.1209 11.7412C14.3557 15.0235 10.6999 19.6758 8.63749 25.082C6.57523 30.488 6.20294 36.3927 7.57108 42.0146C8.93935 47.6368 11.9836 52.7106 16.2996 56.5645C16.3472 53.4428 17.6184 50.4643 19.8406 48.2715C22.063 46.0786 25.0583 44.8467 28.1805 44.8408H42.4607C45.5826 44.8468 48.5773 46.0788 50.7996 48.2715C53.0218 50.4643 54.294 53.4428 54.3416 56.5645H54.3435C58.6596 52.7106 61.7038 47.6368 63.0721 42.0146C64.4402 36.3928 64.0688 30.488 62.0066 25.082C59.9443 19.676 56.2882 15.0235 51.5232 11.7412C46.7582 8.459 41.1081 6.70127 35.3221 6.70117ZM35.3201 18.6602C38.0816 18.6602 40.7306 19.7573 42.6834 21.71C44.6361 23.6627 45.7332 26.3116 45.7332 29.0732C45.7332 31.1327 45.1225 33.1461 43.9783 34.8584C42.8342 36.5706 41.208 37.9053 39.3055 38.6934C37.4028 39.4815 35.3087 39.6879 33.2889 39.2861C31.2692 38.8844 29.414 37.8925 27.9578 36.4365C26.5016 34.9803 25.51 33.1243 25.1082 31.1045C24.7065 29.0848 24.9121 26.9914 25.7 25.0889C26.4881 23.1862 27.8236 21.5592 29.5359 20.415C31.2481 19.2712 33.261 18.6602 35.3201 18.6602Z" fill="url(#paint0_linear_670_3580)" fill-opacity="0.4" style="mix-blend-mode:soft-light"/>
</g>
<path d="M35.3201 2L35.3222 0.148864L35.3201 0.148864L35.3201 2ZM58.8699 11.7705L60.1789 10.4616L60.1788 10.4615L58.8699 11.7705ZM68.6404 35.3203L70.4916 35.3203L70.4916 35.3182L68.6404 35.3203ZM63.0252 53.833L64.5643 54.8615L64.5643 54.8614L63.0252 53.833ZM48.0721 66.1045L48.7805 67.8147L48.7805 67.8147L48.0721 66.1045ZM28.8201 68.001L28.459 69.8165L28.459 69.8165L28.8201 68.001ZM11.7596 58.8818L10.4506 60.1908L10.4506 60.1908L11.7596 58.8818ZM2.64042 41.8213L0.824851 42.1824L0.824851 42.1824L2.64042 41.8213ZM4.53593 22.5693L2.8257 21.8609L2.8257 21.8609L4.53593 22.5693ZM16.8084 7.61621L15.78 6.07705L15.7799 6.07706L16.8084 7.61621ZM35.3221 6.70117L35.3221 4.85004H35.3221V6.70117ZM19.1209 11.7412L18.0708 10.2167L18.0708 10.2167L19.1209 11.7412ZM8.63749 25.082L6.90793 24.4222L6.90792 24.4222L8.63749 25.082ZM7.57108 42.0146L5.77244 42.4524L5.77245 42.4524L7.57108 42.0146ZM16.2996 56.5645L15.0667 57.9452L18.0888 60.6438L18.1505 56.5927L16.2996 56.5645ZM19.8406 48.2715L18.5404 46.9538L18.5404 46.9539L19.8406 48.2715ZM28.1805 44.8408L28.1805 42.9897L28.177 42.9897L28.1805 44.8408ZM42.4607 44.8408L42.4643 42.9897H42.4607V44.8408ZM50.7996 48.2715L52.0998 46.9539L52.0998 46.9538L50.7996 48.2715ZM54.3416 56.5645L52.4907 56.5927L52.5184 58.4156H54.3416V56.5645ZM54.3435 56.5645V58.4156H55.0497L55.5765 57.9452L54.3435 56.5645ZM63.0721 42.0146L64.8707 42.4524L64.8707 42.4524L63.0721 42.0146ZM62.0066 25.082L63.7362 24.4223L63.7362 24.4222L62.0066 25.082ZM51.5232 11.7412L52.5733 10.2168L52.5733 10.2167L51.5232 11.7412ZM35.3201 18.6602L35.3201 16.809L35.3201 16.809L35.3201 18.6602ZM42.6834 21.71L43.9923 20.401L43.9923 20.401L42.6834 21.71ZM45.7332 29.0732L47.5843 29.0732V29.0732H45.7332ZM43.9783 34.8584L45.5175 35.8869L45.5175 35.8868L43.9783 34.8584ZM39.3055 38.6934L40.0139 40.4036L40.0139 40.4036L39.3055 38.6934ZM33.2889 39.2861L32.9277 41.1017L32.9277 41.1017L33.2889 39.2861ZM27.9578 36.4365L26.6488 37.7455L26.6489 37.7455L27.9578 36.4365ZM25.1082 31.1045L23.2926 31.4656L23.2926 31.4656L25.1082 31.1045ZM25.7 25.0889L23.9898 24.3805L23.9897 24.3806L25.7 25.0889ZM29.5359 20.415L28.5076 18.8758L28.5075 18.8759L29.5359 20.415ZM35.3201 2L35.318 3.85113C43.6616 3.86065 51.661 7.17969 57.561 13.0795L58.8699 11.7705L60.1788 10.4615C53.5857 3.86857 44.6463 0.159503 35.3222 0.148865L35.3201 2ZM58.8699 11.7705L57.561 13.0795C63.4608 18.9793 66.7796 26.9788 66.7893 35.3225L68.6404 35.3203L70.4916 35.3182C70.4808 25.9941 66.772 17.0547 60.1789 10.4616L58.8699 11.7705ZM68.6404 35.3203H66.7893C66.7893 41.5445 64.9439 47.6296 61.486 52.8046L63.0252 53.833L64.5643 54.8614C68.4291 49.0774 70.4916 42.2765 70.4916 35.3203H68.6404ZM63.0252 53.833L61.486 52.8046C58.0283 57.9793 53.1136 62.0124 47.3636 64.3943L48.0721 66.1045L48.7805 67.8147C55.2068 65.1527 60.6997 60.6451 64.5643 54.8615L63.0252 53.833ZM48.0721 66.1045L47.3637 64.3943C41.6134 66.7761 35.2856 67.3996 29.1812 66.1854L28.8201 68.001L28.459 69.8165C35.2816 71.1736 42.3538 70.4767 48.7805 67.8147L48.0721 66.1045ZM28.8201 68.001L29.1812 66.1854C23.0769 64.9712 17.4696 61.9739 13.0685 57.5729L11.7596 58.8818L10.4506 60.1908C15.3694 65.1095 21.6364 68.4594 28.459 69.8165L28.8201 68.001ZM11.7596 58.8818L13.0685 57.5729C8.66745 53.1718 5.67024 47.5646 4.45598 41.4601L2.64042 41.8213L0.824851 42.1824C2.18196 49.005 5.5318 55.272 10.4506 60.1908L11.7596 58.8818ZM2.64042 41.8213L4.45598 41.4602C3.24171 35.3556 3.86436 29.0279 6.24615 23.2777L4.53593 22.5693L2.8257 21.8609C0.163597 28.2878 -0.532228 35.3599 0.824851 42.1824L2.64042 41.8213ZM4.53593 22.5693L6.24615 23.2777C8.6279 17.5277 12.6618 12.6133 17.8368 9.15536L16.8084 7.61621L15.7799 6.07706C9.99628 9.94166 5.48776 15.4342 2.8257 21.8609L4.53593 22.5693ZM16.8084 7.61621L17.8368 9.15537C23.0119 5.69747 29.0963 3.85119 35.3201 3.85114L35.3201 2L35.3201 0.148864C28.3638 0.148925 21.5637 2.21247 15.78 6.07705L16.8084 7.61621ZM35.3221 6.70117V4.85004C29.1608 4.85004 23.1448 6.72177 18.0708 10.2167L19.1209 11.7412L20.171 13.2657C24.6273 10.1962 29.911 8.55231 35.3221 8.55231V6.70117ZM19.1209 11.7412L18.0708 10.2167C12.9968 13.7118 9.10399 18.6656 6.90793 24.4222L8.63749 25.082L10.367 25.7418C12.2958 20.686 15.7146 16.3352 20.171 13.2657L19.1209 11.7412ZM8.63749 25.082L6.90792 24.4222C4.71206 30.1785 4.31559 36.4659 5.77244 42.4524L7.57108 42.0146L9.36972 41.5769C8.09029 36.3195 8.43841 30.7976 10.3671 25.7418L8.63749 25.082ZM7.57108 42.0146L5.77245 42.4524C7.22943 48.439 10.471 53.8417 15.0667 57.9452L16.2996 56.5645L17.5325 55.1837C13.4962 51.5795 10.6493 46.8345 9.36972 41.5769L7.57108 42.0146ZM16.2996 56.5645L18.1505 56.5927C18.1907 53.9561 19.2644 51.4408 21.1408 49.5891L19.8406 48.2715L18.5404 46.9539C15.9724 49.4879 14.5036 52.9296 14.4487 56.5363L16.2996 56.5645ZM19.8406 48.2715L21.1408 49.5891C23.0175 47.7373 25.5471 46.6969 28.1839 46.692L28.1805 44.8408L28.177 42.9897C24.5696 42.9965 21.1085 44.4198 18.5404 46.9538L19.8406 48.2715ZM28.1805 44.8408V46.692H42.4607V44.8408V42.9897H28.1805V44.8408ZM42.4607 44.8408L42.4572 46.692C45.0937 46.697 47.6227 47.7374 49.4994 49.5892L50.7996 48.2715L52.0998 46.9538C49.5319 44.4202 46.0716 42.9966 42.4643 42.9897L42.4607 44.8408ZM50.7996 48.2715L49.4994 49.5891C51.3761 51.441 52.4505 53.9565 52.4907 56.5927L54.3416 56.5645L56.1925 56.5363C56.1376 52.9292 54.6676 49.4877 52.0998 46.9539L50.7996 48.2715ZM54.3416 56.5645V58.4156H54.3435V56.5645V54.7133H54.3416V56.5645ZM54.3435 56.5645L55.5765 57.9452C60.1722 53.8417 63.4137 48.439 64.8707 42.4524L63.0721 42.0146L61.2734 41.5769C59.9939 46.8345 57.147 51.5795 53.1106 55.1837L54.3435 56.5645ZM63.0721 42.0146L64.8707 42.4524C66.3275 36.4662 65.932 30.1786 63.7362 24.4223L62.0066 25.082L60.2771 25.7418C62.2055 30.7973 62.5529 36.3194 61.2734 41.5769L63.0721 42.0146ZM62.0066 25.082L63.7362 24.4222C61.5402 18.6658 57.6471 13.7118 52.5733 10.2168L51.5232 11.7412L50.4731 13.2657C54.9292 16.3352 58.3484 20.6862 60.2771 25.7418L62.0066 25.082ZM51.5232 11.7412L52.5733 10.2167C47.4994 6.72179 41.4832 4.85014 35.3221 4.85004L35.3221 6.70117L35.322 8.55231C40.7331 8.5524 46.0169 10.1962 50.4732 13.2657L51.5232 11.7412ZM35.3201 18.6602V20.5113C37.5908 20.5113 39.7689 21.4134 41.3745 23.0189L42.6834 21.71L43.9923 20.401C41.6924 18.1011 38.5725 16.809 35.3201 16.809V18.6602ZM42.6834 21.71L41.3744 23.0189C42.98 24.6245 43.8821 26.8025 43.8821 29.0732H45.7332H47.5843C47.5843 25.8208 46.2923 22.701 43.9923 20.401L42.6834 21.71ZM45.7332 29.0732L43.8821 29.0732C43.882 30.7666 43.3799 32.4221 42.4391 33.83L43.9783 34.8584L45.5175 35.8868C46.865 33.8701 47.5843 31.4988 47.5843 29.0732L45.7332 29.0732ZM43.9783 34.8584L42.4392 33.8299C41.4984 35.2378 40.1613 36.3352 38.597 36.9831L39.3055 38.6934L40.0139 40.4036C42.2547 39.4754 44.17 37.9035 45.5175 35.8869L43.9783 34.8584ZM39.3055 38.6934L38.5971 36.9831C37.0325 37.6312 35.3106 37.8009 33.65 37.4706L33.2889 39.2861L32.9277 41.1017C35.3068 41.5749 37.7731 41.3318 40.0139 40.4036L39.3055 38.6934ZM33.2889 39.2861L33.65 37.4706C31.9895 37.1403 30.4641 36.3248 29.2667 35.1275L27.9578 36.4365L26.6489 37.7455C28.3639 39.4603 30.5489 40.6285 32.9277 41.1017L33.2889 39.2861ZM27.9578 36.4365L29.2668 35.1276C28.0696 33.9304 27.2542 32.4044 26.9238 30.7434L25.1082 31.1045L23.2926 31.4656C23.7658 33.8443 24.9336 36.0302 26.6488 37.7455L27.9578 36.4365ZM25.1082 31.1045L26.9238 30.7434C26.5934 29.0824 26.7625 27.3612 27.4102 25.7972L25.7 25.0889L23.9897 24.3806C23.0616 26.6216 22.8195 29.0872 23.2926 31.4656L25.1082 31.1045ZM25.7 25.0889L27.4102 25.7973C28.0582 24.233 29.1563 22.895 30.5644 21.9542L29.5359 20.415L28.5075 18.8759C26.4908 20.2234 24.918 22.1395 23.9898 24.3805L25.7 25.0889ZM29.5359 20.415L30.5643 21.9543C31.9722 21.0136 33.6273 20.5113 35.3202 20.5113L35.3201 18.6602L35.3201 16.809C32.8946 16.8091 30.5239 17.5287 28.5076 18.8758L29.5359 20.415Z" fill="#F0F0F3" fill-opacity="0.4" mask="url(#path-1-outside-1_670_3580)"/>
<defs>
<filter id="filter0_i_670_3580" x="0.148438" y="0.148438" width="74.3428" height="74.3438" filterUnits="userSpaceOnUse" color-interpolation-filters="sRGB">
<feFlood flood-opacity="0" result="BackgroundImageFix"/>
<feBlend mode="normal" in="SourceGraphic" in2="BackgroundImageFix" result="shape"/>
<feColorMatrix in="SourceAlpha" type="matrix" values="0 0 0 0 0 0 0 0 0 0 0 0 0 0 0 0 0 0 127 0" result="hardAlpha"/>
<feOffset dx="4" dy="4"/>
<feGaussianBlur stdDeviation="2"/>
<feComposite in2="hardAlpha" operator="arithmetic" k2="-1" k3="1"/>
<feColorMatrix type="matrix" values="0 0 0 0 0 0 0 0 0 0 0 0 0 0 0 0 0 0 0.5 0"/>
<feBlend mode="normal" in2="shape" result="effect1_innerShadow_670_3580"/>
</filter>
<linearGradient id="paint0_linear_670_3580" x1="105.26" y1="35.3206" x2="38.6185" y2="-37.918" gradientUnits="userSpaceOnUse">
<stop stop-color="#FF9447"/>
<stop offset="1" stop-color="white"/>
</linearGradient>
</defs>
</svg>
