<svg width="26" height="26" viewBox="0 0 26 26" fill="none" xmlns="http://www.w3.org/2000/svg">
<g filter="url(#filter0_i_620_8600)">
<path d="M5 25C7.20914 25 9 23.2091 9 21C9 18.7909 7.20914 17 5 17C2.79086 17 1 18.7909 1 21C1 23.2091 2.79086 25 5 25Z" fill="#FF9447" stroke="#FF9447" stroke-width="2" stroke-linecap="round" stroke-linejoin="round"/>
<path d="M21 23.667C23.2091 23.667 25 21.8761 25 19.667C25 17.4579 23.2091 15.667 21 15.667C18.7909 15.667 17 17.4579 17 19.667C17 21.8761 18.7909 23.667 21 23.667Z" fill="#FF9447" stroke="#FF9447" stroke-width="2" stroke-linecap="round" stroke-linejoin="round"/>
<path d="M25 1L9 5V10.3333L25 6.33333V1Z" fill="#FF9447"/>
<path d="M9 21V10.3333V21ZM25 19.6667V6.33333V19.6667ZM9 10.3333V5L25 1V6.33333M9 10.3333L25 6.33333L9 10.3333Z" fill="#FF9447"/>
<path d="M9 21V10.3333M9 10.3333V5L25 1V6.33333M9 10.3333L25 6.33333M25 19.6667V6.33333" stroke="#FF9447" stroke-width="2" stroke-linecap="round" stroke-linejoin="round"/>
</g>
<defs>
<filter id="filter0_i_620_8600" x="0" y="0" width="27" height="27" filterUnits="userSpaceOnUse" color-interpolation-filters="sRGB">
<feFlood flood-opacity="0" result="BackgroundImageFix"/>
<feBlend mode="normal" in="SourceGraphic" in2="BackgroundImageFix" result="shape"/>
<feColorMatrix in="SourceAlpha" type="matrix" values="0 0 0 0 0 0 0 0 0 0 0 0 0 0 0 0 0 0 127 0" result="hardAlpha"/>
<feOffset dx="1" dy="1"/>
<feGaussianBlur stdDeviation="0.5"/>
<feComposite in2="hardAlpha" operator="arithmetic" k2="-1" k3="1"/>
<feColorMatrix type="matrix" values="0 0 0 0 0 0 0 0 0 0 0 0 0 0 0 0 0 0 0.5 0"/>
<feBlend mode="normal" in2="shape" result="effect1_innerShadow_620_8600"/>
</filter>
</defs>
</svg>
